<svg width="546" height="546" viewBox="0 0 546 546" fill="none" xmlns="http://www.w3.org/2000/svg">
<mask id="mask0_12_688" style="mask-type:alpha" maskUnits="userSpaceOnUse" x="81" y="81" width="384" height="384">
<circle cx="273" cy="273" r="192" fill="#FF0000"/>
</mask>
<g mask="url(#mask0_12_688)">
<path d="M156.303 218.496L88.5659 221.501L118.056 160.657L177.063 109.741L233.456 130.217L255.642 182.877L194.149 244.37L156.303 218.496Z" fill="#A2B9C6" stroke="black" stroke-width="11"/>
<path d="M151.943 316.977L106.171 367L84 303.124L89.7215 225.396L144.076 200L197 221.548L197 308.512L151.943 316.977Z" fill="#A2B9C6" stroke="black" stroke-width="11"/>
<path d="M218.496 389.697L221.501 457.434L160.657 427.944L109.741 368.937L130.217 312.544L182.877 290.358L244.37 351.851L218.496 389.697Z" fill="#A2B9C6" stroke="black" stroke-width="11"/>
<path d="M316.977 394.057L367 439.829L303.124 462L225.396 456.278L200 401.924L221.548 349H308.512L316.977 394.057Z" fill="#A2B9C6" stroke="black" stroke-width="11"/>
<path d="M389.697 327.504L457.434 324.499L427.944 385.343L368.937 436.259L312.544 415.782L290.358 363.123L351.851 301.63L389.697 327.504Z" fill="#A2B9C6" stroke="black" stroke-width="11"/>
<path d="M394.057 229.023L439.829 179L462 242.876L456.278 320.604L401.924 346L349 324.452L349 237.488L394.057 229.023Z" fill="#A2B9C6" stroke="black" stroke-width="11"/>
<path d="M327.504 156.303L324.499 88.5659L385.343 118.056L436.259 177.063L415.783 233.456L363.123 255.642L301.63 194.149L327.504 156.303Z" fill="#A2B9C6" stroke="black" stroke-width="11"/>
<path d="M229.023 151.943L179 106.171L242.876 84L320.604 89.7215L346 144.076L324.452 197H237.488L229.023 151.943Z" fill="#A2B9C6" stroke="black" stroke-width="11"/>
<mask id="mask1_12_688" style="mask-type:alpha" maskUnits="userSpaceOnUse" x="126" y="67" width="143" height="173">
<path d="M244 239.5L126.5 122L173.5 87L261 67L268.5 215L244 239.5Z" fill="white"/>
</mask>
<g mask="url(#mask1_12_688)">
<path d="M156.303 218.496L88.5659 221.501L118.056 160.657L177.063 109.741L233.456 130.217L255.642 182.877L194.149 244.37L156.303 218.496Z" fill="#A2B9C6" stroke="black" stroke-width="11"/>
</g>
</g>
<path d="M273 0C423.774 0 546 122.226 546 273C546 423.774 423.774 546 273 546C122.226 546 0 423.774 0 273C0 122.226 122.226 0 273 0ZM273 11C128.301 11 11 128.301 11 273C11 417.699 128.301 535 273 535C417.699 535 535 417.699 535 273C535 128.301 417.699 11 273 11ZM273 81C379.039 81 465 166.961 465 273C465 379.039 379.039 465 273 465C166.961 465 81 379.039 81 273C81 166.961 166.961 81 273 81ZM273 92C173.036 92 92 173.036 92 273C92 372.964 173.036 454 273 454C372.964 454 454 372.964 454 273C454 173.036 372.964 92 273 92Z" fill="black"/>
</svg>
